<svg width="337" height="69" viewBox="0 0 337 69" fill="none" xmlns="http://www.w3.org/2000/svg">
<path d="M126.087 60.4266V37.2749C126.087 35.2679 125.729 33.6671 125.012 32.4725C124.295 31.2301 123.077 30.6089 121.356 30.6089C120.257 30.6089 119.182 30.8956 118.131 31.469C117.127 31.9947 116.219 32.7831 115.407 33.8344C114.595 34.8856 113.926 36.1758 113.4 37.7049C112.922 39.1863 112.683 40.8587 112.683 42.7223V60.4266H104.512V42.364C104.512 39.4969 104.321 37.1076 103.939 35.1962C103.556 33.2371 103.15 31.6602 102.72 30.4655C102.195 29.0798 101.621 27.9568 101 27.0967L107.451 24.5163C107.929 25.042 108.407 25.6871 108.884 26.4516C109.267 27.1206 109.649 27.9568 110.031 28.9603C110.414 29.916 110.724 31.0151 110.963 32.2575C112.206 29.3904 113.997 27.3356 116.339 26.0932C118.68 24.8031 121.141 24.158 123.722 24.158C127.401 24.158 130.053 25.2809 131.678 27.5268C133.35 29.7249 134.187 32.7114 134.187 36.4864V60.4266H126.087Z" fill="white"/>
<path d="M171.531 38.35H151.534V60.4266H143.004V11.9012H151.534V32.1141H171.531V11.9012H180.061V60.4266H171.531V38.35Z" fill="white"/>
<path d="M187.113 43.4391C187.113 40.2375 187.543 37.4182 188.404 34.9812C189.311 32.5442 190.53 30.5133 192.059 28.8886C193.636 27.2162 195.476 25.9738 197.578 25.1614C199.681 24.3013 201.951 23.8712 204.388 23.8712C206.538 23.8712 208.354 24.1341 209.835 24.6597C211.364 25.1853 212.607 25.9021 213.562 26.81C214.518 27.7179 215.211 28.7931 215.641 30.0355C216.119 31.2779 216.358 32.6159 216.358 34.0494C216.358 35.7697 215.88 37.4182 214.924 38.9951C213.968 40.5242 212.583 41.8861 210.767 43.0807C208.999 44.2276 206.849 45.1594 204.316 45.8761C201.783 46.5451 198.94 46.9035 195.786 46.9513C195.93 48.0503 196.145 49.1016 196.431 50.1051C196.766 51.0608 197.22 51.9209 197.793 52.6855C198.414 53.4022 199.203 53.9757 200.159 54.4057C201.114 54.8358 202.309 55.0508 203.742 55.0508C204.794 55.0508 205.917 54.9314 207.111 54.6924C208.306 54.4535 209.405 54.1668 210.408 53.8323C211.603 53.45 212.774 53.02 213.921 52.5421L216.071 57.6312C214.829 58.2524 213.491 58.8019 212.057 59.2798C210.815 59.7098 209.381 60.0921 207.756 60.4266C206.132 60.7611 204.411 60.9283 202.596 60.9283C199.824 60.9283 197.459 60.5222 195.5 59.7098C193.54 58.8497 191.94 57.6551 190.697 56.126C189.455 54.5969 188.547 52.7571 187.974 50.6068C187.4 48.4565 187.113 46.0673 187.113 43.4391ZM203.742 29.4621C202.166 29.4621 200.852 29.8443 199.8 30.6089C198.797 31.3257 197.984 32.2814 197.363 33.476C196.742 34.6228 196.288 35.9369 196.001 37.4182C195.762 38.8518 195.619 40.3092 195.571 41.7905C197.865 41.695 199.8 41.4083 201.377 40.9304C203.002 40.4048 204.316 39.7836 205.319 39.0668C206.323 38.3022 207.04 37.4899 207.47 36.6298C207.948 35.7697 208.186 34.9095 208.186 34.0494C208.186 32.6636 207.78 31.5646 206.968 30.7523C206.156 29.8921 205.08 29.4621 203.742 29.4621Z" fill="white"/>
<path d="M251.957 43.1524C251.957 46.0195 252.124 48.4326 252.458 50.3918C252.841 52.3032 253.247 53.8562 253.677 55.0508C254.202 56.4844 254.776 57.6073 255.397 58.4196L249.018 61C248.397 60.3788 247.823 59.6382 247.298 58.778C246.868 58.0135 246.461 57.1056 246.079 56.0543C245.697 54.9552 245.458 53.6651 245.362 52.1837C244.55 55.0508 243.236 57.225 241.42 58.7064C239.652 60.1399 237.239 60.8567 234.181 60.8567C231.935 60.8567 229.976 60.4505 228.303 59.6382C226.678 58.778 225.317 57.5834 224.218 56.0543C223.118 54.4774 222.306 52.5899 221.78 50.3918C221.255 48.1937 220.992 45.7567 220.992 43.0807C220.992 40.357 221.398 37.8483 222.211 35.5546C223.071 33.2132 224.241 31.2062 225.723 29.5337C227.252 27.8613 229.068 26.5472 231.17 25.5915C233.273 24.6358 235.59 24.158 238.123 24.158C239.556 24.158 241.038 24.2774 242.567 24.5163C244.144 24.7075 245.601 24.9225 246.939 25.1614C248.277 25.4004 249.4 25.6393 250.308 25.8782C251.264 26.0693 251.813 26.1888 251.957 26.2366V43.1524ZM235.543 55.1225C236.737 55.1225 237.836 54.7163 238.84 53.904C239.843 53.0916 240.703 52.0404 241.42 50.7502C242.185 49.4122 242.758 47.907 243.14 46.2345C243.57 44.5143 243.785 42.7701 243.785 41.0021V30.6806C243.308 30.5372 242.591 30.37 241.635 30.1788C240.679 29.9877 239.819 29.8921 239.055 29.8921C237.239 29.8921 235.734 30.2027 234.539 30.8239C233.392 31.4451 232.46 32.3053 231.744 33.4043C231.027 34.5034 230.525 35.8174 230.238 37.3466C229.952 38.8757 229.808 40.5481 229.808 42.364C229.808 44.0364 229.856 45.6372 229.952 47.1663C230.047 48.6954 230.286 50.0573 230.668 51.2519C231.099 52.4465 231.696 53.4022 232.46 54.119C233.225 54.788 234.252 55.1225 235.543 55.1225Z" fill="white"/>
<path d="M269.169 60.7133C266.445 60.7133 264.438 59.9726 263.148 58.4913C261.858 56.9622 261.212 55.0269 261.212 52.6855V9.8942L269.384 8.38898V51.897C269.384 52.9961 269.599 53.7606 270.029 54.1907C270.459 54.6208 271.08 54.8358 271.892 54.8358C272.37 54.8358 272.824 54.8119 273.254 54.7641C273.732 54.7163 274.162 54.6446 274.544 54.5491C274.974 54.4535 275.357 54.3579 275.691 54.2624L276.695 59.4231C276.074 59.662 275.381 59.8771 274.616 60.0682C273.947 60.2594 273.159 60.4027 272.251 60.4983C271.343 60.6416 270.315 60.7133 269.169 60.7133Z" fill="white"/>
<path d="M276.668 24.7314H283.119L284.552 16.3451L291.29 14.8399V24.7314H300.106L299.103 30.5372H291.29V51.7537C291.29 52.9961 291.624 53.8084 292.293 54.1907C292.962 54.5252 293.703 54.6924 294.515 54.6924C295.184 54.6924 295.853 54.6446 296.522 54.5491C297.191 54.4535 297.789 54.334 298.314 54.1907C298.936 54.0473 299.533 53.8801 300.106 53.6889L301.468 59.0647L300.823 59.2798C300.393 59.4709 299.748 59.6859 298.888 59.9249C298.075 60.116 297.096 60.2832 295.949 60.4266C294.85 60.6177 293.631 60.7133 292.293 60.7133C290.955 60.7133 289.713 60.57 288.566 60.2833C287.467 59.9965 286.512 59.5426 285.699 58.9214C284.887 58.2524 284.242 57.4162 283.764 56.4127C283.334 55.4092 283.119 54.1668 283.119 52.6855V30.5372H276.668V24.7314Z" fill="white"/>
<path d="M314.68 29.3187C316.066 27.5029 317.715 26.1888 319.626 25.3765C321.585 24.5641 323.64 24.158 325.79 24.158C329.47 24.158 332.122 25.2809 333.746 27.5268C335.419 29.7249 336.255 32.7114 336.255 36.4864V60.4266H328.084V37.0598C328.084 35.0529 327.726 33.476 327.009 32.3292C326.292 31.1345 325.073 30.5372 323.353 30.5372C322.35 30.5372 321.322 30.8 320.271 31.3257C319.268 31.8513 318.336 32.6159 317.476 33.6193C316.663 34.575 315.994 35.7219 315.469 37.0598C314.943 38.3978 314.68 39.8791 314.68 41.5038V60.4266H306.509V9.8942L314.68 8.46065V29.3187Z" fill="white"/>
<path d="M37.2401 58.5605L14.5361 34.831C14.3977 34.6922 14.2592 34.5535 14.1208 34.4147C10.5214 31.6393 8.44478 27.4762 8.44478 22.8969C8.30634 14.8483 14.813 8.32614 22.8424 8.32614C27.134 8.32614 31.2872 10.2689 34.056 13.5994C34.8866 14.5707 35.9941 15.1258 37.2401 15.1258C38.486 15.1258 39.5935 14.5707 40.4242 13.5994C43.193 10.2689 47.2077 8.32614 51.6377 8.32614C59.6672 8.32614 66.1738 14.8483 66.1738 22.8969C66.1738 24.5621 65.8969 26.0886 65.4816 27.4762H74.0648C74.3417 25.9498 74.6186 24.4233 74.6186 22.8969C74.3417 10.2689 64.0972 0 51.4993 0C46.2386 0 41.1164 1.804 37.1016 5.13445C33.2253 1.804 28.1031 0 22.8424 0C10.2445 0 0 10.2689 0 22.8969C0 29.9741 3.1841 36.4962 8.72165 40.7981L34.1944 67.4417C35.0251 68.2743 35.9941 68.6906 37.2401 68.6906C38.486 68.6906 39.4551 68.2743 40.2857 67.4417L52.6068 54.675L49.4227 45.7937L37.2401 58.5605Z" fill="#81D4FA"/>
<path d="M52.8837 17.2074C51.084 17.2074 49.5611 18.1787 48.8689 19.844L43.6083 33.027H33.6407C31.2872 33.027 29.4875 34.831 29.4875 37.1901C29.4875 39.5492 31.2872 41.3531 33.6407 41.3531H46.377C47.3461 41.3531 48.3152 40.9368 49.0074 40.3818C49.5611 39.9655 49.9765 39.4104 50.2533 38.7165L52.1915 33.7209L54.4065 40.5205L57.3137 49.5405L58.4212 52.871C58.975 54.5362 60.4978 55.6463 62.1591 55.7851H62.2975C63.9588 55.7851 65.4816 54.8137 66.1738 53.2873L71.1576 41.4919H84.4478C86.8012 41.4919 88.6009 39.6879 88.6009 37.3288C88.6009 34.9698 86.8012 33.1658 84.4478 33.1658H71.9883H68.3888C66.7276 33.1658 65.2047 34.1372 64.5125 35.6636L62.8513 39.5492L61.0516 33.8596L58.975 27.4763L56.6215 19.9827C56.2062 18.3175 54.6834 17.2074 52.8837 17.2074Z" fill="#81D4FA"/>
</svg>
